<?xml version="1.0"?>
<svg version="1.1" xmlns="http://www.w3.org/2000/svg" width="400" height="50" style=""><path fill="#f0340a" d="M15.833984375,19.927734375q0-0.21875,0.1572265625-0.3623046875t0.369140625-0.2255859375t0.46484375-0.109375t0.4443359375-0.02734375q0.396484375,0,0.8408203125,0.109375t0.6630859375,0.478515625q0.396484375,0.669921875,0.5810546875,1.5927734375t0.3486328125,1.7705078125q0.24609375,1.17578125,0.62890625,2.4609375t0.7998046875,2.6181640625t0.8544921875,2.6181640625t0.765625,2.40625q0.396484375-1.654296875,0.7314453125-3.390625t0.642578125-3.47265625t0.642578125-3.47265625t0.7314453125-3.404296875q0.08203125-0.396484375,0.123046875-0.998046875t0.1708984375-1.162109375t0.3759765625-0.9638671875t0.751953125-0.4033203125q0.533203125,0,0.7177734375,0.2939453125t0.1845703125,0.8544921875q-0.13671875,1.544921875-0.4443359375,3.0625t-0.5673828125,3.03515625q-0.369140625,1.873046875-0.7998046875,3.7529296875t-0.806640625,3.7666015625t-0.642578125,3.7802734375t-0.3212890625,3.7939453125q0.02734375,0.08203125,0.08203125,0.19140625t0.0546875,0.1640625q0,0.1640625-0.150390625,0.3076171875t-0.3759765625,0.24609375t-0.4921875,0.1572265625t-0.4990234375,0.0546875q-0.21875,0-0.4990234375-0.02734375t-0.560546875-0.1025390625t-0.4921875-0.1982421875t-0.2666015625-0.314453125q-0.21875-0.642578125-0.4033203125-1.2509765625t-0.3486328125-1.2509765625q-0.779296875-2.802734375-1.6337890625-5.5029296875t-1.5791015625-5.4892578125q-0.341796875-1.2578125-0.5126953125-2.4677734375t-0.5537109375-2.3857421875q0.0546875,0.109375,0.0546875,0.177734375q-0.0546875-0.19140625-0.109375-0.3623046875t-0.123046875-0.3759765625q0,0.0546875,0.013671875,0.068359375t0.013671875,0.041015625q0-0.02734375-0.013671875-0.041015625t-0.013671875-0.041015625z M30.62244140625,38.80859375q0.0546875-2.857421875,0.2392578125-5.701171875t0.3212890625-5.701171875q0.02734375-1.09375,0.02734375-1.9892578125t0.0888671875-1.5517578125t0.328125-1.0048828125t0.7998046875-0.3486328125q0.478515625,0,0.724609375,0.13671875t0.3759765625,0.3486328125t0.1572265625,0.478515625t0.02734375,0.5400390625q0,0.396484375,0.02734375,0.7861328125t0.02734375,0.7861328125q0,2.884765625-0.1572265625,5.755859375t-0.1572265625,5.783203125q0,0.423828125,0.013671875,0.8544921875t0.013671875,0.8818359375q0,0.1640625-0.150390625,0.2734375t-0.3759765625,0.1845703125t-0.478515625,0.1025390625t-0.4169921875,0.02734375q-0.19140625,0-0.4306640625-0.02734375t-0.46484375-0.1162109375t-0.3828125-0.2119140625t-0.1572265625-0.287109375z M31.38806640625,20.26953125q0-0.13671875,0.041015625-0.3076171875t0.095703125-0.3076171875q0.02734375-0.1640625,0.08203125-0.560546875t0.1982421875-0.7724609375t0.396484375-0.669921875t0.7177734375-0.2939453125l0.259765625,0q0.21875,0.0546875,0.4443359375,0.13671875t0.2255859375,0.396484375q0,0.13671875-0.013671875,0.259765625t-0.041015625,0.2734375q-0.109375,0.806640625-0.2119140625,1.271484375t-0.2392578125,0.7041015625t-0.3486328125,0.3076171875t-0.5400390625,0.095703125q-0.109375,0-0.2939453125-0.013671875t-0.35546875-0.068359375t-0.2939453125-0.1708984375t-0.123046875-0.2802734375z M36.6472265625,21.103515625q0-0.1640625,0.1572265625-0.24609375t0.341796875-0.123046875t0.3349609375-0.041015625l0.150390625,0q0.478515625,0,0.6904296875,0.21875t0.5126953125,0.560546875q2.05078125,2.966796875,3.759765625,6.1044921875t3.294921875,6.3505859375q0.13671875-3.74609375,0.2802734375-7.5400390625t0.3623046875-7.5263671875q0-0.1640625,0.1572265625-0.2734375t0.35546875-0.1640625t0.4033203125-0.068359375t0.314453125-0.013671875q0.1640625,0,0.3623046875,0.013671875t0.396484375,0.08203125t0.328125,0.1640625t0.1298828125,0.259765625q0.0546875,0.587890625,0.0615234375,1.1826171875t0.0068359375,1.1826171875q0,4.40234375-0.19140625,8.626953125t-0.19140625,8.53125l0,0.984375q0,0.0546875-0.0546875,0.1640625q0.02734375,0.109375,0.08203125,0.2392578125t0.0546875,0.1845703125q0,0.21875-0.2255859375,0.328125t-0.4921875,0.1708984375t-0.4716796875,0.0615234375t-0.150390625,0q-0.697265625,0-1.17578125-0.3828125t-0.478515625-0.916015625q-1.01171875-2.26953125-2.0166015625-4.5048828125t-2.0986328125-4.4501953125q-0.697265625-1.39453125-1.4013671875-2.7958984375t-1.5107421875-2.7138671875q0.02734375,0.02734375,0.02734375,0.08203125q0.13671875,1.3671875,0.2939453125,2.7275390625t0.2392578125,2.7275390625q0.0546875,1.17578125,0.123046875,2.37890625t0.21875,2.37890625q0,0.451171875-0.2802734375,0.57421875t-0.6494140625,0.123046875q-0.314453125,0-0.5947265625-0.08203125t-0.3349609375-0.41015625q0-1.2578125-0.095703125-2.6728515625t-0.177734375-2.8505859375q-0.13671875-1.900390625-0.3623046875-3.8623046875t-0.2255859375-3.8349609375q0-0.08203125,0.013671875-0.1708984375t0.013671875-0.1982421875q-0.08203125-0.13671875-0.1845703125-0.287109375t-0.1025390625-0.2734375z M51.75013671875,38.685546875q0-0.08203125,0.0546875-0.5810546875t0.1435546875-1.216796875t0.1982421875-1.544921875t0.19140625-1.5654296875t0.1435546875-1.298828125t0.0615234375-0.751953125q-0.109375-0.0546875-0.2666015625-0.1572265625t-0.1572265625-0.2392578125q0-0.19140625,0.1845703125-0.3076171875t0.3212890625-0.1708984375q0.0546875-0.697265625,0.13671875-1.94140625t0.2529296875-2.6865234375t0.478515625-2.92578125t0.8134765625-2.693359375t1.216796875-1.9755859375t1.75-0.765625t1.72265625,0.65625t1.1142578125,1.708984375t0.65625,2.337890625t0.341796875,2.556640625t0.1435546875,2.37890625t0.0546875,1.77734375q0.02734375,0.423828125,0.205078125,0.5673828125t0.3896484375,0.1982421875t0.3828125,0.123046875t0.1708984375,0.341796875q0,0.314453125-0.3828125,0.4375t-0.6015625,0.150390625q0.13671875,1.708984375,0.3759765625,3.36328125t0.6357421875,3.3359375q0.0546875,0.314453125,0.150390625,0.6357421875t0.095703125,0.6220703125q0,0.21875-0.150390625,0.3623046875t-0.3896484375,0.2255859375t-0.478515625,0.109375t-0.4033203125,0.02734375q-0.615234375,0-1.0390625-0.232421875t-0.560546875-0.888671875q-0.369140625-1.763671875-0.724609375-3.705078125q-0.30078125-1.681640625-0.30078125-3.267578125q0-0.24609375,0.013671875-0.4921875q-1.1484375,0-2.310546875,0.0546875t-2.228515625,0.41015625q-0.02734375,0.369140625-0.13671875,1.39453125t-0.24609375,2.201171875t-0.2802734375,2.2490234375t-0.1708984375,1.5244140625q-0.02734375,0.19140625-0.2802734375,0.3623046875t-0.546875,0.1845703125t-0.51953125-0.1845703125t-0.2255859375-0.7041015625z M54.30677734375,30.400390625q1.06640625-0.24609375,2.1396484375-0.287109375t2.1669921875-0.095703125q-0.0546875-0.341796875-0.02734375-0.7041015625t0.02734375-0.7314453125q0-0.806640625-0.041015625-1.873046875t-0.123046875-2.16015625t-0.2119140625-2.1533203125t-0.2939453125-1.88671875t-0.3486328125-1.3193359375t-0.4033203125-0.4921875q-0.423828125,0.02734375-0.7998046875,0.7314453125t-0.68359375,1.791015625t-0.560546875,2.43359375t-0.423828125,2.6318359375t-0.2802734375,2.392578125t-0.13671875,1.72265625z M65.55421875,25.861328125q0-0.533203125,0.0341796875-1.5654296875t0.1025390625-2.1533203125t0.177734375-2.0986328125t0.314453125-1.4013671875q0.109375-0.21875,0.3349609375-0.2939453125t0.4443359375-0.0751953125q0.13671875,0,0.4580078125,0.0751953125t0.3212890625,0.2939453125q0,0.341796875-0.08203125,1.2919921875t-0.150390625,2.1806640625t-0.095703125,2.556640625l0,0.587890625q0,0.998046875,0.068359375,1.873046875q0.095703125,1.12109375,0.3623046875,1.845703125t0.7998046875,0.724609375q0.724609375,0,1.353515625-0.4306640625t1.1484375-1.12109375t0.9365234375-1.544921875t0.7109375-1.681640625t0.4921875-1.5244140625t0.2802734375-1.09375q0.08203125-0.451171875,0.1435546875-1.203125t0.1982421875-1.4765625t0.4853515625-1.2578125t1.0185546875-0.533203125q0.396484375,0,0.7587890625,0.13671875t0.4716796875,0.587890625q-0.21875,0.833984375-0.369140625,2.3173828125t-0.2392578125,3.1103515625t-0.1298828125,3.1513671875t-0.041015625,2.4814453125q0,1.06640625,0.02734375,2.6044921875t0.095703125,3.1787109375t0.1572265625,3.1923828125t0.1982421875,2.5908203125q0.109375,0.21875,0.109375,0.505859375q0,0.341796875-0.13671875,0.533203125t-0.3759765625,0.287109375t-0.51953125,0.123046875t-0.5400390625,0.02734375q-0.396484375,0-0.8818359375-0.13671875t-0.5947265625-0.560546875q-0.13671875-0.505859375-0.2255859375-1.3330078125t-0.1298828125-1.8046875t-0.068359375-2.0439453125t-0.02734375-2.0439453125t0.013671875-1.818359375t0.013671875-1.3740234375q0-1.0390625,0.041015625-2.0439453125t0.095703125-2.0439453125q-0.341796875,0.697265625-0.7998046875,1.4150390625t-1.0458984375,1.3056640625t-1.3125,0.9638671875t-1.572265625,0.3759765625q-1.09375,0-1.66796875-0.587890625t-0.833984375-1.4560546875t-0.2939453125-1.845703125t-0.0341796875-1.7705078125z M84.7678515625,30.400390625q0-2.3515625,0.1298828125-4.6484375t0.3212890625-4.6484375q0.0546875-0.615234375,0.068359375-1.189453125t0.1298828125-1.0048828125t0.41015625-0.68359375t0.9091796875-0.2529296875q0.396484375,0,0.8271484375,0.13671875t0.4306640625,0.642578125q0,1.900390625-0.1572265625,3.7392578125t-0.2119140625,3.6572265625q1.490234375-1.681640625,3.185546875-3.1376953125t3.595703125-2.8779296875q0.2734375-0.19140625,0.697265625-0.205078125q0.13671875,0,0.2392578125,0.013671875t0.2119140625,0.041015625q0.13671875,0.0546875,0.2802734375,0.1298828125t0.1435546875,0.2119140625q0,0.109375-0.123046875,0.19140625q-1.421875,1.1484375-2.8095703125,2.337890625t-2.6455078125,2.54296875q0.1640625,0.314453125,0.2802734375,0.587890625t0.2529296875,0.587890625q1.1484375,2.720703125,1.9619140625,5.5712890625t1.7294921875,5.6533203125q0.08203125,0.314453125,0.2392578125,0.6494140625t0.2939453125,0.669921875t0.2392578125,0.62890625t0.1025390625,0.4853515625q0,0.24609375-0.1572265625,0.3896484375t-0.3623046875,0.2255859375t-0.4443359375,0.109375t-0.4443359375,0.02734375q-0.478515625,0-0.8544921875-0.13671875t-0.5947265625-0.615234375q-1.01171875-3.2265625-1.9482421875-6.453125t-1.8935546875-6.5078125q-0.314453125,0.314453125-0.62890625,0.7861328125t-0.57421875,0.8681640625q0,2.05078125,0.095703125,4.07421875t0.328125,4.07421875q0.0546875,0.587890625,0.1845703125,1.17578125t0.1298828125,1.203125q0,0.451171875-0.46484375,0.62890625t-1.025390625,0.177734375q-0.615234375,0-0.9228515625-0.123046875t-0.4375-0.3212890625t-0.1572265625-0.4375t-0.08203125-0.4580078125q-0.314453125-2.16015625-0.396484375-4.2724609375t-0.08203125-4.2451171875z M98.79068359375,26.572265625l0-1.052734375l0-1.080078125q0.013671875-1.09375,0.0888671875-2.0986328125t0.2119140625-1.6748046875q0.08203125-0.369140625,0.4921875-0.451171875t0.7109375-0.08203125q0.560546875,0,0.8271484375,0.13671875t0.3486328125,0.3896484375t0.068359375,0.6015625t-0.013671875,0.7998046875q0,0.642578125-0.02734375,1.791015625t-0.041015625,2.54296875l0,0.697265625q0,1.052734375,0.02734375,2.173828125q0.041015625,1.50390625,0.1572265625,2.8779296875t0.3212890625,2.474609375t0.57421875,1.6884765625q0.587890625-0.533203125,1.17578125-1.4970703125t1.12109375-2.1669921875t1.0185546875-2.5361328125t0.8818359375-2.6044921875t0.6767578125-2.392578125t0.4169921875-1.900390625q0.21875-1.12109375,0.2939453125-2.283203125t0.0751953125-2.583984375q0.423828125-0.505859375,0.65625-0.6357421875t0.73828125-0.1298828125q0.24609375,0,0.4990234375,0.041015625t0.4853515625,0.19140625l0.19140625,0.30078125l0,0.341796875q0,2.48828125-0.2392578125,5.0517578125t-0.505859375,5.154296875t-0.505859375,5.1953125t-0.2392578125,5.1748046875q0,0.396484375,0.0341796875,0.8408203125t0.1435546875,0.8408203125l-0.0546875,0.1640625q-0.19140625,0.314453125-0.62890625,0.396484375t-0.751953125,0.08203125q-0.669921875,0-1.0048828125-0.1982421875t-0.4443359375-0.546875t-0.095703125-0.806640625t0.013671875-0.9912109375q0-1.845703125,0.1640625-3.7529296875t0.396484375-3.7529296875q-0.21875,0.642578125-0.51953125,1.5517578125t-0.7041015625,1.818359375t-0.9365234375,1.66796875t-1.17578125,1.0869140625l0.02734375-0.02734375l-0.109375,0.0546875l0.02734375,0q-0.396484375,0.21875-0.7314453125,0.2939453125t-0.7861328125,0.0751953125q-0.90234375,0-1.4970703125-0.533203125t-0.9638671875-1.3740234375t-0.546875-1.88671875t-0.2529296875-2.0986328125t-0.0751953125-2.0029296875l0-1.5654296875q0-0.751953125-0.013671875-1.791015625z M103.65787109375,37.455078125q0.02734375,0,0.02734375-0.02734375l0.02734375,0q-0.02734375,0.02734375-0.0546875,0.02734375z M113.5928125,36.78515625q-0.013671875-0.41015625-0.013671875-0.8203125q0-1.28515625,0.13671875-2.583984375q0.1640625-1.72265625,0.21875-3.390625q0.0546875-1.955078125,0.1640625-4.060546875q0.068359375-1.1484375,0.068359375-2.26953125q0-0.916015625-0.041015625-1.818359375q0.13671875-0.314453125,0.3623046875-0.423828125t0.5673828125-0.109375q0.1640625,0,0.3486328125,0.02734375t0.3212890625,0.13671875q0.19140625,0.02734375,0.4716796875,0.0546875t0.4306640625,0.1640625q0.0546875,0.08203125,0.2802734375,0.560546875t0.533203125,1.162109375t0.642578125,1.4833984375t0.642578125,1.517578125t0.533203125,1.2646484375t0.2802734375,0.68359375q1.28515625-2.32421875,2.515625-4.7783203125t2.693359375-4.6279296875q0.13671875-0.19140625,0.4716796875-0.2802734375t0.5537109375-0.0888671875q0.587890625,0,0.8544921875,0.2802734375t0.3486328125,0.7177734375q0.0546875,0.2734375,0.068359375,0.587890625q0.013671875,0.1640625-0.013671875,0.341796875q-0.0546875,0.505859375-0.0546875,0.95703125q0,3.185546875-0.21875,6.3232421875t-0.396484375,6.3369140625q-0.02734375,0.65625-0.02734375,1.3671875t0.02734375,1.4765625q0.013671875,0.2734375,0.013671875,0.533203125q0,1.203125-0.205078125,2.2421875q-0.19140625,0.314453125-0.62890625,0.396484375t-0.73828125,0.08203125q-0.642578125,0-1.23046875-0.30078125l-0.150390625-0.177734375l-0.0546875-0.21875t-0.02734375-0.21875q0-1.982421875,0.1435546875-3.9921875t0.3212890625-4.0126953125t0.3759765625-3.9990234375t0.3349609375-3.9921875q-0.806640625,1.33984375-1.5654296875,2.7275390625t-1.4287109375,2.8232421875q-0.24609375,0.560546875-0.4716796875,1.203125t-0.5400390625,1.1484375q-0.1640625,0.24609375-0.5537109375,0.30078125t-0.6767578125,0.0546875q-0.2734375,0-0.5673828125-0.095703125t-0.4033203125-0.41015625q-0.505859375-1.544921875-1.080078125-3.021484375t-1.162109375-2.994140625q0,1.01171875,0.041015625,2.6181640625t0.041015625,3.3291015625t-0.0546875,3.294921875t-0.259765625,2.48828125q-0.0546875,0.341796875-0.4443359375,0.423828125t-0.6767578125,0.08203125q-0.21875,0-0.4169921875-0.02734375t-0.3896484375-0.109375z M129.74845703125,38.685546875q0-0.08203125,0.0546875-0.5810546875t0.1435546875-1.216796875t0.1982421875-1.544921875t0.19140625-1.5654296875t0.1435546875-1.298828125t0.0615234375-0.751953125q-0.109375-0.0546875-0.2666015625-0.1572265625t-0.1572265625-0.2392578125q0-0.19140625,0.1845703125-0.3076171875t0.3212890625-0.1708984375q0.0546875-0.697265625,0.13671875-1.94140625t0.2529296875-2.6865234375t0.478515625-2.92578125t0.8134765625-2.693359375t1.216796875-1.9755859375t1.75-0.765625t1.72265625,0.65625t1.1142578125,1.708984375t0.65625,2.337890625t0.341796875,2.556640625t0.1435546875,2.37890625t0.0546875,1.77734375q0.02734375,0.423828125,0.205078125,0.5673828125t0.3896484375,0.1982421875t0.3828125,0.123046875t0.1708984375,0.341796875q0,0.314453125-0.3828125,0.4375t-0.6015625,0.150390625q0.13671875,1.708984375,0.3759765625,3.36328125t0.6357421875,3.3359375q0.0546875,0.314453125,0.150390625,0.6357421875t0.095703125,0.6220703125q0,0.21875-0.150390625,0.3623046875t-0.3896484375,0.2255859375t-0.478515625,0.109375t-0.4033203125,0.02734375q-0.615234375,0-1.0390625-0.232421875t-0.560546875-0.888671875q-0.369140625-1.763671875-0.724609375-3.705078125q-0.30078125-1.681640625-0.30078125-3.267578125q0-0.24609375,0.013671875-0.4921875q-1.1484375,0-2.310546875,0.0546875t-2.228515625,0.41015625q-0.02734375,0.369140625-0.13671875,1.39453125t-0.24609375,2.201171875t-0.2802734375,2.2490234375t-0.1708984375,1.5244140625q-0.02734375,0.19140625-0.2802734375,0.3623046875t-0.546875,0.1845703125t-0.51953125-0.1845703125t-0.2255859375-0.7041015625z M132.30509765625,30.400390625q1.06640625-0.24609375,2.1396484375-0.287109375t2.1669921875-0.095703125q-0.0546875-0.341796875-0.02734375-0.7041015625t0.02734375-0.7314453125q0-0.806640625-0.041015625-1.873046875t-0.123046875-2.16015625t-0.2119140625-2.1533203125t-0.2939453125-1.88671875t-0.3486328125-1.3193359375t-0.4033203125-0.4921875q-0.423828125,0.02734375-0.7998046875,0.7314453125t-0.68359375,1.791015625t-0.560546875,2.43359375t-0.423828125,2.6318359375t-0.2802734375,2.392578125t-0.13671875,1.72265625z M143.5251953125,20.26953125q0-0.642578125,0.1572265625-0.9365234375t0.451171875-0.41015625t0.7109375-0.0888671875t0.9775390625,0.02734375q1.421875,0,2.87109375,0.4375t2.611328125,1.2783203125t1.873046875,2.0712890625t0.7109375,2.830078125q0,1.06640625-0.3076171875,2.0166015625t-0.8681640625,1.77734375t-1.3125,1.5107421875t-1.654296875,1.189453125q0.369140625,0.369140625,0.95703125,1.3056640625t1.162109375,1.99609375t1.0185546875,2.0576171875t0.5263671875,1.50390625l-0.1640625,0.24609375q-0.369140625,0.21875-0.888671875,0.232421875q-0.24609375,0-0.642578125-0.0615234375t-0.505859375-0.3623046875q-0.560546875-1.572265625-1.2236328125-3.240234375t-1.6337890625-3.0078125l0-0.02734375q-0.341796875,0.13671875-0.6767578125,0.2666015625t-0.6767578125,0.2392578125q0.109375,1.517578125,0.2255859375,2.9873046875t0.1162109375,2.9736328125q0,0.19140625-0.1845703125,0.3076171875t-0.4169921875,0.1845703125t-0.4716796875,0.095703125t-0.3896484375,0.02734375q-0.13671875,0-0.3896484375-0.02734375t-0.4853515625-0.095703125t-0.4033203125-0.1982421875t-0.1708984375-0.3486328125q0-1.517578125-0.068359375-3.0283203125t-0.150390625-3.0146484375q-0.423828125-0.2734375-0.423828125-0.7109375q0-0.341796875,0.328125-0.46484375q-0.1640625-2.884765625-0.3759765625-5.755859375t-0.2119140625-5.783203125z M145.9998046875,19.845703125q0.19140625,2.966796875,0.4306640625,5.865234375t0.4580078125,5.865234375q0.95703125-0.2734375,1.7841796875-0.9501953125t1.4287109375-1.5244140625t0.9365234375-1.845703125t0.3349609375-1.982421875q0-1.09375-0.4375-2.0986328125t-1.162109375-1.7568359375q-0.73828125-0.751953125-1.6953125-1.17578125q-0.84765625-0.369140625-1.77734375-0.369140625l-0.24609375,0z M162.01421875,36.40234375q0-0.478515625,0.328125-0.6083984375t0.7109375-0.1298828125q0.669921875,0,1.134765625,0.6015625t0.8818359375,1.3193359375t0.8271484375,1.3193359375t0.970703125,0.6015625q0.423828125,0,0.7724609375-0.2119140625t0.6015625-0.533203125t0.3896484375-0.724609375t0.13671875-0.7998046875q0-1.0390625-0.4169921875-2.146484375t-1.06640625-2.283203125t-1.3740234375-2.40625t-1.3671875-2.501953125t-1.06640625-2.5908203125t-0.423828125-2.6591796875q0-2.009765625,1.203125-3.1171875t3.171875-1.107421875q0.669921875,0,1.353515625,0.19140625t1.2578125,0.57421875t0.9365234375,0.943359375t0.3623046875,1.3125q0,0.24609375-0.3623046875,0.3212890625t-0.5263671875,0.0751953125q-0.24609375,0-0.533203125-0.0615234375t-0.369140625-0.3349609375t-0.232421875-0.62890625t-0.3759765625-0.6630859375t-0.533203125-0.533203125t-0.6767578125-0.2255859375q-0.615234375,0-1.0458984375,0.2529296875t-0.697265625,0.6767578125t-0.396484375,0.9501953125t-0.1298828125,1.0869140625q0,1.3125,0.451171875,2.6455078125t1.12109375,2.65234375t1.4560546875,2.6044921875t1.4560546875,2.501953125t1.12109375,2.37890625t0.451171875,2.201171875q0,0.9296875-0.4375,1.572265625t-1.107421875,1.0458984375t-1.4833984375,0.587890625t-1.5927734375,0.1845703125q-0.833984375,0-1.708984375-0.3349609375t-1.572265625-0.9228515625t-1.1484375-1.3740234375t-0.451171875-1.7021484375z M174.31439453125,38.80859375q0.0546875-2.857421875,0.2392578125-5.701171875t0.3212890625-5.701171875q0.02734375-1.09375,0.02734375-1.9892578125t0.0888671875-1.5517578125t0.328125-1.0048828125t0.7998046875-0.3486328125q0.478515625,0,0.724609375,0.13671875t0.3759765625,0.3486328125t0.1572265625,0.478515625t0.02734375,0.5400390625q0,0.396484375,0.02734375,0.7861328125t0.02734375,0.7861328125q0,2.884765625-0.1572265625,5.755859375t-0.1572265625,5.783203125q0,0.423828125,0.013671875,0.8544921875t0.013671875,0.8818359375q0,0.1640625-0.150390625,0.2734375t-0.3759765625,0.1845703125t-0.478515625,0.1025390625t-0.4169921875,0.02734375q-0.19140625,0-0.4306640625-0.02734375t-0.46484375-0.1162109375t-0.3828125-0.2119140625t-0.1572265625-0.287109375z M175.08001953125,20.26953125q0-0.13671875,0.041015625-0.3076171875t0.095703125-0.3076171875q0.02734375-0.1640625,0.08203125-0.560546875t0.1982421875-0.7724609375t0.396484375-0.669921875t0.7177734375-0.2939453125l0.259765625,0q0.21875,0.0546875,0.4443359375,0.13671875t0.2255859375,0.396484375q0,0.13671875-0.013671875,0.259765625t-0.041015625,0.2734375q-0.109375,0.806640625-0.2119140625,1.271484375t-0.2392578125,0.7041015625t-0.3486328125,0.3076171875t-0.5400390625,0.095703125q-0.109375,0-0.2939453125-0.013671875t-0.35546875-0.068359375t-0.2939453125-0.1708984375t-0.123046875-0.2802734375z M180.3391796875,21.103515625q0-0.1640625,0.1572265625-0.24609375t0.341796875-0.123046875t0.3349609375-0.041015625l0.150390625,0q0.478515625,0,0.6904296875,0.21875t0.5126953125,0.560546875q2.05078125,2.966796875,3.759765625,6.1044921875t3.294921875,6.3505859375q0.13671875-3.74609375,0.2802734375-7.5400390625t0.3623046875-7.5263671875q0-0.1640625,0.1572265625-0.2734375t0.35546875-0.1640625t0.4033203125-0.068359375t0.314453125-0.013671875q0.1640625,0,0.3623046875,0.013671875t0.396484375,0.08203125t0.328125,0.1640625t0.1298828125,0.259765625q0.0546875,0.587890625,0.0615234375,1.1826171875t0.0068359375,1.1826171875q0,4.40234375-0.19140625,8.626953125t-0.19140625,8.53125l0,0.984375q0,0.0546875-0.0546875,0.1640625q0.02734375,0.109375,0.08203125,0.2392578125t0.0546875,0.1845703125q0,0.21875-0.2255859375,0.328125t-0.4921875,0.1708984375t-0.4716796875,0.0615234375t-0.150390625,0q-0.697265625,0-1.17578125-0.3828125t-0.478515625-0.916015625q-1.01171875-2.26953125-2.0166015625-4.5048828125t-2.0986328125-4.4501953125q-0.697265625-1.39453125-1.4013671875-2.7958984375t-1.5107421875-2.7138671875q0.02734375,0.02734375,0.02734375,0.08203125q0.13671875,1.3671875,0.2939453125,2.7275390625t0.2392578125,2.7275390625q0.0546875,1.17578125,0.123046875,2.37890625t0.21875,2.37890625q0,0.451171875-0.2802734375,0.57421875t-0.6494140625,0.123046875q-0.314453125,0-0.5947265625-0.08203125t-0.3349609375-0.41015625q0-1.2578125-0.095703125-2.6728515625t-0.177734375-2.8505859375q-0.13671875-1.900390625-0.3623046875-3.8623046875t-0.2255859375-3.8349609375q0-0.08203125,0.013671875-0.1708984375t0.013671875-0.1982421875q-0.08203125-0.13671875-0.1845703125-0.287109375t-0.1025390625-0.2734375z M195.55146484375,27.3515625q0-0.90234375,0.0751953125-1.9755859375t0.2666015625-2.1533203125t0.57421875-2.0849609375t0.984375-1.791015625t1.4697265625-1.2509765625t2.0712890625-0.46484375q0.95703125,0,1.763671875,0.369140625t1.408203125,0.998046875t0.9365234375,1.4697265625t0.3349609375,1.7568359375q0,0.24609375-0.3349609375,0.3076171875t-0.4716796875,0.0615234375q-0.24609375,0-0.4716796875-0.041015625t-0.3349609375-0.328125q-0.19140625-0.533203125-0.4033203125-1.12109375t-0.51953125-1.0732421875t-0.7587890625-0.7998046875q-0.41015625-0.2734375-1.0390625-0.2734375l-0.109375,0q-1.1484375,0.02734375-1.708984375,0.8203125t-0.7724609375,1.927734375t-0.2119140625,2.40625l0,2.255859375q0,0.560546875,0.041015625,1.626953125t0.1982421875,2.32421875t0.41015625,2.5634765625t0.68359375,2.37890625t1.0322265625,1.75t1.44921875,0.6767578125q0.751953125,0,1.3125-0.51953125t0.9638671875-1.3330078125t0.68359375-1.818359375t0.46484375-2.0166015625t0.2802734375-1.8798828125t0.150390625-1.4287109375q-0.150390625-0.013671875-0.287109375-0.013671875q-0.642578125,0-1.2578125,0.205078125q-0.779296875,0.232421875-1.55859375,0.232421875q-0.109375,0-0.2939453125-0.013671875t-0.3486328125-0.068359375t-0.2939453125-0.1572265625t-0.1298828125-0.2666015625q0-0.314453125,0.6904296875-0.533203125t1.572265625-0.3759765625t1.7021484375-0.2255859375t1.080078125-0.068359375q0.13671875,0,0.3896484375,0.02734375t0.505859375,0.095703125t0.4306640625,0.1982421875t0.177734375,0.3212890625q0,0.1640625-0.123046875,0.2939453125t-0.3076171875,0.1982421875t-0.3759765625,0.095703125t-0.30078125,0.02734375q0.013671875,0.314453125,0.013671875,0.642578125q0,0.73828125-0.041015625,1.572265625q-0.068359375,1.203125-0.2734375,2.40625t-0.62890625,2.337890625t-1.080078125,2.0029296875t-1.6201171875,1.4013671875t-2.2900390625,0.533203125q-1.44921875,0-2.447265625-0.615234375t-1.626953125-1.640625t-0.9775390625-2.32421875t-0.4990234375-2.6591796875t-0.1845703125-2.6455078125t-0.0341796875-2.32421875z M211.091875,22.5595703125q-0.02734375-0.3623046875,0.0615234375-0.68359375t0.3349609375-0.533203125t0.833984375-0.2119140625q0.13671875,0,0.3349609375,0.02734375t0.396484375,0.0888671875t0.3212890625,0.1708984375t0.123046875,0.30078125q0,0.505859375,0.0341796875,1.3330078125t0.0888671875,1.72265625t0.1025390625,1.75t0.0888671875,1.3876953125q1.06640625-0.0546875,2.146484375-0.0546875t2.1328125-0.0546875l1.88671875-0.0546875l0-1.353515625q0-2.26953125-0.0888671875-4.5458984375t-0.3076171875-4.5458984375q0-0.1640625,0.13671875-0.2666015625t0.3212890625-0.1572265625t0.3828125-0.068359375t0.3076171875-0.013671875q0.314453125,0,0.6767578125,0.095703125t0.4169921875,0.41015625l0.08203125,0.587890625q0.341796875,2.4609375,0.46484375,4.8671875t0.177734375,4.8125q0.1640625,0.02734375,0.3486328125,0.0888671875t0.3759765625,0.1162109375q0.13671875,0.0546875,0.3896484375,0.1640625t0.2529296875,0.341796875q0,0.21875-0.19140625,0.341796875t-0.4306640625,0.1845703125t-0.46484375,0.0751953125t-0.2802734375,0.013671875q0.02734375,1.01171875,0.02734375,2.0166015625l0,2.0166015625l0,4.416015625l0,2.4609375q0,0.1640625-0.1572265625,0.2939453125t-0.3759765625,0.2119140625t-0.4580078125,0.109375t-0.4306640625,0.02734375t-0.451171875-0.02734375t-0.46484375-0.109375t-0.3623046875-0.205078125t-0.1572265625-0.30078125l0-0.587890625q0.0546875-2.59765625,0.123046875-5.1474609375t0.13671875-5.1201171875q-1.490234375,0.0546875-3.0283203125,0.068359375t-3.0556640625,0.068359375q0.1640625,1.927734375,0.3759765625,3.8486328125t0.4443359375,3.8486328125q0,0.1640625-0.1572265625,0.2939453125t-0.369140625,0.2119140625t-0.451171875,0.109375t-0.4306640625,0.02734375q-0.396484375,0-0.8681640625-0.13671875t-0.5263671875-0.505859375q-0.1640625-1.44921875-0.3076171875-3.19921875t-0.2529296875-3.5751953125t-0.1708984375-3.5751953125t-0.0615234375-3.171875q0-0.341796875-0.02734375-0.7041015625z"/><path fill="#" d=""/></svg>
