<?xml version="1.0" standalone="no"?>
<!DOCTYPE svg PUBLIC "-//W3C//DTD SVG 20010904//EN"
 "http://www.w3.org/TR/2001/REC-SVG-20010904/DTD/svg10.dtd">
<svg version="1.0" xmlns="http://www.w3.org/2000/svg"
 width="512.000000pt" height="512.000000pt" viewBox="0 0 512.000000 512.000000"
 preserveAspectRatio="xMidYMid meet">
    <g transform="translate(0.000000,512.000000) scale(0.100000,-0.100000)"
    fill="currentcolor" stroke="none">
        <path d="M2890 4248 c-25 -14 -57 -42 -72 -64 -21 -30 -124 -379 -463 -1564
        -239 -839 -435 -1541 -435 -1561 0 -52 46 -136 91 -166 54 -35 103 -45 168
        -32 44 9 63 20 100 58 l47 46 437 1530 c252 884 437 1547 437 1571 0 58 -44
        139 -93 172 -58 39 -155 43 -217 10z"/>
        <path d="M1210 3617 c-27 -8 -146 -120 -493 -466 -267 -266 -467 -473 -480
        -496 -28 -54 -28 -136 0 -190 13 -23 213 -230 480 -496 391 -389 464 -457 499
        -467 83 -24 149 -8 211 52 57 53 78 121 62 199 -11 51 -19 60 -387 429 l-376
        378 376 378 c365 366 376 378 386 427 36 169 -112 302 -278 252z"/>
        <path d="M3767 3616 c-67 -24 -110 -71 -132 -141 -13 -41 -13 -60 -4 -105 l11
        -55 376 -377 376 -378 -376 -378 -376 -377 -11 -55 c-33 -160 109 -292 267
        -250 43 12 83 48 505 469 274 272 467 472 479 496 14 26 21 59 21 95 0 36 -7
        69 -21 95 -12 24 -205 223 -479 496 -391 389 -464 457 -499 467 -53 15 -89 15
        -137 -2z"/>
    </g>
</svg>