<?xml version="1.0" standalone="no"?>
<!DOCTYPE svg PUBLIC "-//W3C//DTD SVG 20010904//EN"
 "http://www.w3.org/TR/2001/REC-SVG-20010904/DTD/svg10.dtd">
<svg version="1.0" xmlns="http://www.w3.org/2000/svg"
 width="512.000000pt" height="512.000000pt" viewBox="0 0 512.000000 512.000000"
 preserveAspectRatio="xMidYMid meet">

<g transform="translate(0.000000,512.000000) scale(0.100000,-0.100000)"
fill="currentcolor" stroke="none">
<path d="M2488 5099 c-23 -12 -46 -35 -58 -59 -19 -38 -20 -58 -20 -488 l0
-450 -842 -382 c-464 -211 -853 -390 -865 -397 -37 -24 -66 -96 -58 -144 10
-56 66 -114 121 -123 40 -7 53 -3 181 51 10 4 13 -311 15 -1500 3 -1503 3
-1506 24 -1533 11 -15 33 -37 48 -48 27 -20 41 -21 462 -24 l434 -3 0 578 c0
559 1 579 20 611 11 18 34 41 52 52 32 19 52 20 558 20 506 0 526 -1 558 -20
18 -11 41 -34 52 -52 19 -32 20 -52 20 -611 l0 -578 434 3 c421 3 435 4 462
24 15 11 37 33 48 48 21 27 21 30 24 1533 2 1189 5 1504 15 1500 139 -59 138
-59 189 -47 58 14 103 63 113 122 8 45 -22 117 -58 141 -12 7 -401 186 -864
397 l-843 382 0 279 0 279 263 0 c293 0 311 3 354 69 21 31 23 46 23 161 0
115 -2 130 -23 161 -45 68 -51 69 -447 69 -334 -1 -357 -2 -392 -21z m270
-1952 c99 -34 172 -80 246 -153 246 -245 247 -644 2 -889 -123 -122 -274 -185
-446 -185 -172 0 -323 63 -445 185 -306 306 -219 822 172 1011 101 49 178 64
298 60 74 -3 119 -10 173 -29z"/>
<path d="M112 1740 c-18 -4 -45 -18 -59 -31 -54 -51 -53 -29 -53 -839 0 -733
0 -752 20 -790 13 -26 34 -47 60 -60 36 -19 58 -20 310 -20 l270 0 0 875 0
875 -257 -1 c-142 -1 -273 -5 -291 -9z"/>
<path d="M4460 876 l0 -876 270 0 c252 0 274 1 310 20 26 13 47 34 60 60 20
39 20 53 18 804 -3 754 -3 765 -24 792 -11 15 -33 37 -48 48 -26 20 -43 21
-307 24 l-279 3 0 -875z"/>
</g>
</svg>
